<?xml version="1.0" standalone="no"?>
<!DOCTYPE svg PUBLIC "-//W3C//DTD SVG 1.1//EN" "http://www.w3.org/Graphics/SVG/1.1/DTD/svg11.dtd">
<svg width="300px" height="150px" version="1.1" xmlns="http://www.w3.org/2000/svg" xmlns:xlink="http://www.w3.org/1999/xlink" xml:space="preserve" style="fill-rule:evenodd;clip-rule:evenodd;stroke-linejoin:round;stroke-miterlimit:1.41421;">
    <g>
        <g>
            <path d="M89.6315,131.611L89.5725,130.457L89.4168,129.356L89.166,128.194L88.8309,126.983L88.425,125.734L87.9657,124.465L86.9301,121.846L85.8744,119.238L85.3721,117.93L84.9129,116.633L84.5135,115.341L84.1938,114.054L83.9775,112.763L83.8967,111.475L83.9769,110.179L84.1901,108.862L84.5053,107.527L84.9003,106.171L85.3565,104.797L85.8581,103.406L87.9611,97.9186L88.4271,96.6261L88.8378,95.3892L89.1755,94.2308L89.4252,93.173L89.5756,92.2433L89.6241,91.4608L89.5756,90.6774L89.4252,89.7469L89.1754,88.6885L88.8378,87.5296L88.4271,86.2924L87.961,84.9998L86.9178,82.2769L85.858,79.5114L85.3565,78.1203L84.9003,76.7463L84.5052,75.3908L84.1901,74.0556L83.9769,72.7377L83.8967,71.442L83.9769,70.1467L84.1901,68.8291L84.5052,67.4942L84.9003,66.1388L85.3565,64.765L85.8581,63.374L86.9178,60.6084L87.961,57.8856L88.4271,56.593L88.8378,55.3559L89.1755,54.1971L89.4252,53.139L89.5756,52.2088L89.6241,51.4258L89.5756,50.6428L89.4252,49.7127L89.1755,48.6546L88.8378,47.4958L88.4271,46.2587L87.961,44.966L86.9178,42.2432L85.8581,39.4777L85.3565,38.0867L84.9003,36.7128L84.5052,35.3575L84.1901,34.0225L83.9769,32.7049L83.8967,31.4097L83.9769,30.114L84.1901,28.796L84.5052,27.4607L84.9002,26.105L85.3564,24.7309L85.858,23.3397L87.961,17.8507L88.4271,16.558L88.8378,15.3209L89.1755,14.1621L89.4252,13.1039L89.5756,12.1738L89.6329,11.2481L94.2439,11.5334L94.1725,12.6864L93.9594,14.0044L93.6442,15.3397L93.2492,16.6953L92.793,18.0695L92.2914,19.4607L90.1884,24.9497L89.7224,26.2424L89.3117,27.4795L88.974,28.6383L88.7242,29.6965L88.5738,30.6266L88.5254,31.4096L88.5738,32.192L88.7242,33.1217L88.974,34.1795L89.3116,35.338L89.7223,36.575L90.1884,37.8675L91.2317,40.5902L92.2914,43.356L92.793,44.7472L93.2492,46.1213L93.6442,47.4769L93.9594,48.8122L94.1725,50.1302L94.2527,51.4258L94.1725,52.7215L93.9594,54.0395L93.6442,55.3747L93.2492,56.7304L92.793,58.1045L92.2914,59.4957L91.2317,62.2614L90.1884,64.9842L89.7223,66.2767L89.3116,67.5136L88.974,68.6721L88.7242,69.7299L88.5738,70.6596L88.5254,71.4421L88.5738,72.225L88.7242,73.155L88.974,74.213L89.3116,75.3717L89.7224,76.6087L90.1884,77.9012L91.2317,80.624L92.2914,83.3897L92.793,84.781L93.2492,86.1552L93.6443,87.5111L93.9594,88.8466L94.1726,90.1649L94.2527,91.4609L94.1725,92.7562L93.9594,94.0738L93.6442,95.4087L93.2492,96.764L92.793,98.1379L92.2914,99.5288L90.1884,105.017L89.7223,106.309L89.3116,107.546L88.974,108.705L88.7242,109.762L88.5738,110.692L88.5254,111.473L88.5732,112.235L88.7205,113.114L88.9657,114.101L89.299,115.179L89.7068,116.332L90.1721,117.543L91.2193,120.13L92.2868,122.829L92.7951,124.234L93.2561,125.653L93.6538,127.09L93.9678,128.544L94.1757,130.015L94.2453,131.375L89.6315,131.611Z" style="fill:rgb(0,156,255);"/>
            <g>
                <g>
                    <path d="M7.78066,64.4389L24.9682,64.4389L24.9682,59.5639L19.5307,59.5639L19.5307,46.6264L24.7807,46.6264C27.4682,46.6264 28.2807,47.1889 29.4057,49.0639L36.2182,61.1264C37.7182,63.7514 38.5932,64.4389 42.3432,64.4389L46.0932,64.4389L46.0932,59.5639L44.7807,59.5639C43.2182,59.5639 42.4057,59.3139 41.7182,58.1264L35.4682,47.2514C34.7182,45.8139 33.5932,45.1889 33.5932,45.1889L33.5932,45.0639C39.2182,43.6264 42.7182,39.0639 42.7182,32.6889C42.7182,26.6889 39.6557,22.8139 35.0307,21.2514C32.5932,20.4389 30.0307,20.3139 26.9057,20.3139L7.78066,20.3139L7.78066,25.1264L13.2807,25.1264L13.2807,59.5639L7.78066,59.5639L7.78066,64.4389ZM19.5307,41.5014L19.5307,25.4389L26.8432,25.4389C28.9682,25.4389 30.8432,25.6889 32.2807,26.2514C35.0307,27.3764 36.4057,29.7514 36.4057,33.1889C36.4057,38.3764 33.2182,41.5014 28.4057,41.5014L19.5307,41.5014Z" style="fill:white;"/>
                    <path d="M58.6634,26.5014L65.0384,26.5014L65.0384,20.3139L58.6634,20.3139L58.6634,26.5014ZM53.8509,64.4389L69.8509,64.4389L69.8509,59.7514L64.8509,59.7514L64.8509,32.8139L53.5384,32.8139L53.5384,37.5014L58.7884,37.5014L58.7884,59.7514L53.8509,59.7514L53.8509,64.4389Z" style="fill:white;"/>
                    <path d="M14.2981,120.689L31.6731,120.689L31.6731,115.814L26.1106,115.814L26.1106,102.001L38.4856,81.3764L42.6731,81.3764L42.6731,76.5639L27.6106,76.5639L27.6106,81.3764L32.1731,81.3764L23.9856,95.2514C23.4231,96.1889 23.0481,97.1264 23.0481,97.1264L22.9231,97.1264C22.9231,97.1264 22.5481,96.1889 22.0481,95.2514L13.8606,81.3764L18.4856,81.3764L18.4856,76.5639L3.29813,76.5639L3.29813,81.3764L7.48563,81.3764L19.8606,102.001L19.8606,115.814L14.2981,115.814L14.2981,120.689Z" style="fill:white;"/>
                    <path d="M37.021,104.814C37.021,114.439 44.646,121.439 54.0835,121.439C63.521,121.439 71.146,114.439 71.146,104.814C71.146,95.2514 63.521,88.3139 54.0835,88.3139C44.646,88.3139 37.021,95.2514 37.021,104.814ZM43.2085,104.814C43.2085,98.2514 48.0835,93.5639 54.0835,93.5639C60.021,93.5639 64.9585,98.2514 64.9585,104.814C64.9585,111.439 60.021,116.189 54.0835,116.189C48.0835,116.189 43.2085,111.439 43.2085,104.814Z" style="fill:white;"/>
                </g>
            </g>
            <g>
                <g>
                    <path d="M105.934,34.4068C105.934,38.3068 109.084,40.1443 112.234,40.1443C116.847,40.1443 118.497,36.1318 118.497,36.1318L118.572,36.1318C118.572,36.1318 118.422,36.6193 118.422,37.3693L118.422,37.6318C118.422,38.8693 119.097,39.6943 120.784,39.6943L124.572,39.6943L124.572,36.8818L122.659,36.8818C122.134,36.8818 121.834,36.6193 121.834,36.0568L121.834,27.5818C121.834,22.7818 119.284,20.2693 114.447,20.2693C110.022,20.2693 107.247,22.5193 107.247,22.5193L108.709,25.1068C108.709,25.1068 111.147,23.2693 114.147,23.2693C116.472,23.2693 118.197,24.3193 118.197,27.3193L118.197,28.0318L116.997,28.0318C113.847,28.0318 105.934,28.4443 105.934,34.4068ZM109.609,34.1068C109.609,30.4693 115.572,30.3943 117.297,30.3943L118.234,30.3943L118.234,31.1818C118.234,34.0318 116.247,37.3318 113.022,37.3318C110.847,37.3318 109.609,35.7943 109.609,34.1068Z" style="fill:white;"/>
                    <path d="M127.309,39.6943L136.909,39.6943L136.909,36.8818L133.909,36.8818L133.909,31.1068C133.909,27.3943 136.009,23.5693 139.609,23.5693C142.534,23.5693 142.909,25.8568 142.909,28.3318L142.909,39.6943L149.509,39.6943L149.509,36.8818L146.547,36.8818L146.547,30.9568C146.547,27.2068 148.572,23.5693 152.134,23.5693C154.984,23.5693 155.472,25.6693 155.472,28.3318L155.472,39.6943L162.109,39.6943L162.109,36.8818L159.109,36.8818L159.109,27.5443C159.109,22.7068 157.122,20.2693 152.922,20.2693C149.809,20.2693 147.184,22.3693 146.134,24.7318L146.059,24.7318C145.422,21.6568 143.547,20.2693 140.509,20.2693C137.434,20.2693 134.697,22.6318 133.759,24.8818L133.684,24.8818C133.684,24.8818 133.797,24.3943 133.797,23.7943L133.797,22.8193C133.797,21.4318 133.009,20.7193 131.397,20.7193L127.122,20.7193L127.122,23.5318L129.447,23.5318C129.972,23.5318 130.272,23.7943 130.272,24.3193L130.272,36.8818L127.309,36.8818L127.309,39.6943Z" style="fill:white;"/>
                    <path d="M164.247,34.4068C164.247,38.3068 167.397,40.1443 170.547,40.1443C175.159,40.1443 176.809,36.1318 176.809,36.1318L176.884,36.1318C176.884,36.1318 176.734,36.6193 176.734,37.3693L176.734,37.6318C176.734,38.8693 177.409,39.6943 179.097,39.6943L182.884,39.6943L182.884,36.8818L180.972,36.8818C180.447,36.8818 180.147,36.6193 180.147,36.0568L180.147,27.5818C180.147,22.7818 177.597,20.2693 172.759,20.2693C168.334,20.2693 165.559,22.5193 165.559,22.5193L167.022,25.1068C167.022,25.1068 169.459,23.2693 172.459,23.2693C174.784,23.2693 176.509,24.3193 176.509,27.3193L176.509,28.0318L175.309,28.0318C172.159,28.0318 164.247,28.4443 164.247,34.4068ZM167.922,34.1068C167.922,30.4693 173.884,30.3943 175.609,30.3943L176.547,30.3943L176.547,31.1818C176.547,34.0318 174.559,37.3318 171.334,37.3318C169.159,37.3318 167.922,35.7943 167.922,34.1068Z" style="fill:white;"/>
                    <path d="M187.684,32.7568C187.684,39.0943 192.522,39.8443 194.922,39.8443C195.709,39.8443 196.234,39.7693 196.234,39.7693L196.234,36.7318C196.234,36.7318 195.897,36.7693 195.372,36.7693C193.947,36.7693 191.322,36.2818 191.322,32.4193L191.322,23.5318L195.859,23.5318L195.859,20.7193L191.322,20.7193L191.322,15.5068L187.759,15.5068L187.759,20.7193L184.497,20.7193L184.497,23.5318L187.684,23.5318L187.684,32.7568Z" style="fill:white;"/>
                    <path d="M206.097,17.9818L209.509,17.9818L214.159,13.2193L209.997,13.2193L206.097,17.9818ZM198.859,30.2068C198.859,35.8318 202.947,40.1443 208.909,40.1443C213.447,40.1443 216.297,37.5193 216.297,37.5193L214.797,34.8568C214.797,34.8568 212.434,36.9943 209.134,36.9943C205.759,36.9943 202.797,34.7443 202.572,30.5443L216.447,30.5443C216.447,30.5443 216.559,29.6443 216.559,29.1568C216.559,24.2443 213.747,20.2693 208.347,20.2693C202.947,20.2693 198.859,24.1693 198.859,30.2068ZM202.722,28.2193C203.247,25.0318 205.497,23.1568 208.272,23.1568C210.672,23.1568 212.697,24.8818 212.809,28.2193L202.722,28.2193Z" style="fill:white;"/>
                    <path d="M220.009,39.6943L229.309,39.6943L229.309,36.8818L226.497,36.8818L226.497,31.8568C226.497,28.1443 228.222,24.0568 232.272,24.0568C232.872,24.0568 233.322,24.1693 233.322,24.1693L233.322,20.5693C233.322,20.5693 232.872,20.4943 232.384,20.4943C229.459,20.4943 227.247,22.6693 226.384,25.4443L226.309,25.4443C226.309,25.4443 226.384,24.8818 226.384,24.1318L226.384,22.9318C226.384,21.3943 225.597,20.7193 223.947,20.7193L219.672,20.7193L219.672,23.5318L222.034,23.5318C222.559,23.5318 222.859,23.7943 222.859,24.3568L222.859,36.8818L220.009,36.8818L220.009,39.6943Z" style="fill:white;"/>
                    <path d="M235.497,35.6068C235.497,38.6068 239.472,40.1443 242.922,40.1443C247.234,40.1443 250.534,38.1568 250.534,34.5568C250.534,31.0318 247.197,29.7943 244.272,28.8193C241.984,28.0318 239.884,27.2818 239.884,25.4818C239.884,23.9443 241.459,23.1943 243.259,23.1943C245.097,23.1943 246.597,23.9818 246.597,25.1443L246.597,26.3818L249.784,26.3818L249.784,24.0943C249.784,21.3193 245.884,20.2693 243.222,20.2693C239.922,20.2693 236.209,21.7693 236.209,25.5193C236.209,28.9693 239.322,30.2443 242.134,31.2943C244.759,32.2318 246.859,32.8318 246.859,34.7443C246.859,36.3193 245.172,37.1818 243.034,37.1818C240.934,37.1818 238.684,36.4318 238.684,34.8193L238.684,33.5818L235.497,33.5818L235.497,35.6068Z" style="fill:white;"/>
                    <path d="M253.234,39.6943L262.384,39.6943L262.384,36.8818L259.834,36.8818L259.834,30.7693L261.334,30.7693C262.159,30.7693 262.684,30.8443 263.097,31.5193L266.847,37.9318C267.672,39.3943 268.234,39.6943 269.959,39.6943L272.809,39.6943L272.809,36.8818L271.609,36.8818C270.634,36.8818 270.334,36.7318 269.959,36.1318L266.734,30.6193C265.984,29.3443 265.384,29.0818 265.347,29.0818L265.347,29.0068L270.034,23.5318L272.547,23.5318L272.547,20.7193L263.922,20.7193L263.922,23.5318L266.397,23.5318L262.609,27.9943L259.834,27.9943L259.834,13.2193L253.047,13.2193L253.047,16.0318L256.234,16.0318L256.234,36.8818L253.234,36.8818L253.234,39.6943Z" style="fill:white;"/>
                    <path d="M276.447,43.6318L275.209,46.3693C275.209,46.3693 276.859,47.5693 279.297,47.5693C282.222,47.5693 284.697,45.9193 285.972,42.6943L293.472,23.5318L295.834,23.5318L295.834,20.7193L287.434,20.7193L287.434,23.5318L289.872,23.5318L285.672,34.8193C285.372,35.6443 285.222,36.4693 285.222,36.4693L285.109,36.4693C285.109,36.4693 285.034,35.6443 284.772,34.8193L280.534,23.5318L283.047,23.5318L283.047,20.7193L274.384,20.7193L274.384,23.5318L276.784,23.5318L283.422,40.0318L282.634,41.9068C281.997,43.4068 280.759,44.5318 279.147,44.5318C277.534,44.5318 276.447,43.6318 276.447,43.6318Z" style="fill:white;"/>
                    <path d="M106.272,71.4568C106.272,77.3443 109.459,81.3943 114.559,81.3943C119.434,81.3943 120.972,77.6068 120.972,77.6068L121.047,77.6068C121.047,77.6068 120.934,77.9818 120.934,78.6193L120.934,78.8818C120.934,80.1193 121.609,80.9443 123.297,80.9443L127.084,80.9443L127.084,78.1318L125.172,78.1318C124.647,78.1318 124.347,77.8693 124.347,77.3068L124.347,54.4693L117.559,54.4693L117.559,57.2818L120.709,57.2818L120.709,63.2818C120.709,64.1068 120.822,64.7068 120.822,64.7068L120.747,64.7068C120.747,64.7068 119.209,61.5193 114.897,61.5193C109.797,61.5193 106.272,65.4193 106.272,71.4568ZM109.984,71.4568C109.984,67.1443 112.422,64.7068 115.459,64.7068C119.059,64.7068 120.822,68.0068 120.822,71.4943C120.822,76.2193 118.159,78.2443 115.347,78.2443C112.197,78.2443 109.984,75.5818 109.984,71.4568Z" style="fill:white;"/>
                    <path d="M132.972,58.1818L136.797,58.1818L136.797,54.4693L132.972,54.4693L132.972,58.1818ZM130.084,80.9443L139.684,80.9443L139.684,78.1318L136.684,78.1318L136.684,61.9693L129.897,61.9693L129.897,64.7818L133.047,64.7818L133.047,78.1318L130.084,78.1318L130.084,80.9443Z" style="fill:white;"/>
                    <path d="M141.222,64.7818L143.622,64.7818L149.734,80.9443L153.822,80.9443L159.972,64.7818L162.334,64.7818L162.334,61.9693L153.859,61.9693L153.859,64.7818L156.297,64.7818L152.247,75.8443C151.947,76.6693 151.834,77.6068 151.834,77.6068L151.722,77.6068C151.722,77.6068 151.609,76.6693 151.309,75.8443L147.297,64.7818L149.734,64.7818L149.734,61.9693L141.222,61.9693L141.222,64.7818Z" style="fill:white;"/>
                    <path d="M163.909,75.6568C163.909,79.5568 167.059,81.3943 170.209,81.3943C174.822,81.3943 176.472,77.3818 176.472,77.3818L176.547,77.3818C176.547,77.3818 176.397,77.8693 176.397,78.6193L176.397,78.8818C176.397,80.1193 177.072,80.9443 178.759,80.9443L182.547,80.9443L182.547,78.1318L180.634,78.1318C180.109,78.1318 179.809,77.8693 179.809,77.3068L179.809,68.8318C179.809,64.0318 177.259,61.5193 172.422,61.5193C167.997,61.5193 165.222,63.7693 165.222,63.7693L166.684,66.3568C166.684,66.3568 169.122,64.5193 172.122,64.5193C174.447,64.5193 176.172,65.5693 176.172,68.5693L176.172,69.2818L174.972,69.2818C171.822,69.2818 163.909,69.6943 163.909,75.6568ZM167.584,75.3568C167.584,71.7193 173.547,71.6443 175.272,71.6443L176.209,71.6443L176.209,72.4318C176.209,75.2818 174.222,78.5818 170.997,78.5818C168.822,78.5818 167.584,77.0443 167.584,75.3568Z" style="fill:white;"/>
                    <path d="M185.059,71.4568C185.059,77.3443 188.247,81.3943 193.347,81.3943C198.222,81.3943 199.759,77.6068 199.759,77.6068L199.834,77.6068C199.834,77.6068 199.722,77.9818 199.722,78.6193L199.722,78.8818C199.722,80.1193 200.397,80.9443 202.084,80.9443L205.872,80.9443L205.872,78.1318L203.959,78.1318C203.434,78.1318 203.134,77.8693 203.134,77.3068L203.134,54.4693L196.347,54.4693L196.347,57.2818L199.497,57.2818L199.497,63.2818C199.497,64.1068 199.609,64.7068 199.609,64.7068L199.534,64.7068C199.534,64.7068 197.997,61.5193 193.684,61.5193C188.584,61.5193 185.059,65.4193 185.059,71.4568ZM188.772,71.4568C188.772,67.1443 191.209,64.7068 194.247,64.7068C197.847,64.7068 199.609,68.0068 199.609,71.4943C199.609,76.2193 196.947,78.2443 194.134,78.2443C190.984,78.2443 188.772,75.5818 188.772,71.4568Z" style="fill:white;"/>
                    <path d="M208.609,71.4568C208.609,77.0818 212.697,81.3943 218.659,81.3943C223.197,81.3943 226.047,78.7693 226.047,78.7693L224.547,76.1068C224.547,76.1068 222.184,78.2443 218.884,78.2443C215.509,78.2443 212.547,75.9943 212.322,71.7943L226.197,71.7943C226.197,71.7943 226.309,70.8943 226.309,70.4068C226.309,65.4943 223.497,61.5193 218.097,61.5193C212.697,61.5193 208.609,65.4193 208.609,71.4568ZM212.472,69.4693C212.997,66.2818 215.247,64.4068 218.022,64.4068C220.422,64.4068 222.447,66.1318 222.559,69.4693L212.472,69.4693Z" style="fill:white;"/>
                    <path d="M231.072,75.5443C231.072,79.9693 233.397,81.0568 236.097,81.0568C236.959,81.0568 237.709,80.9818 237.709,80.9818L237.747,77.9818C237.747,77.9818 237.334,78.0193 236.734,78.0193C235.084,78.0193 234.709,76.9318 234.709,75.3193L234.709,54.4693L227.922,54.4693L227.922,57.2818L231.072,57.2818L231.072,75.5443Z" style="fill:white;"/>
                    <path d="M240.672,80.9443L250.272,80.9443L250.272,78.1318L247.272,78.1318L247.272,72.1318C247.272,68.3443 249.784,64.8568 253.609,64.8568C256.647,64.8568 257.172,66.9568 257.172,69.6193L257.172,80.9443L263.809,80.9443L263.809,78.1318L260.809,78.1318L260.809,68.7943C260.809,63.9568 258.859,61.5193 254.509,61.5193C249.709,61.5193 247.497,65.1193 247.122,66.1318L247.047,66.1318C247.047,66.1318 247.159,65.6443 247.159,65.0443L247.159,64.0693C247.159,62.6818 246.409,61.9693 244.759,61.9693L240.484,61.9693L240.484,64.7818L242.809,64.7818C243.334,64.7818 243.634,65.0443 243.634,65.6068L243.634,78.1318L240.672,78.1318L240.672,80.9443Z" style="fill:white;"/>
                    <path d="M269.397,58.1818L273.222,58.1818L273.222,54.4693L269.397,54.4693L269.397,58.1818ZM266.509,80.9443L276.109,80.9443L276.109,78.1318L273.109,78.1318L273.109,61.9693L266.322,61.9693L266.322,64.7818L269.472,64.7818L269.472,78.1318L266.509,78.1318L266.509,80.9443Z" style="fill:white;"/>
                    <path d="M106.197,119.621C106.197,122.621 110.172,124.158 113.622,124.158C117.934,124.158 121.234,122.171 121.234,118.571C121.234,115.046 117.897,113.808 114.972,112.833C112.684,112.046 110.584,111.296 110.584,109.496C110.584,107.958 112.159,107.208 113.959,107.208C115.797,107.208 117.297,107.996 117.297,109.158L117.297,110.396L120.484,110.396L120.484,108.108C120.484,105.333 116.584,104.283 113.922,104.283C110.622,104.283 106.909,105.783 106.909,109.533C106.909,112.983 110.022,114.258 112.834,115.308C115.459,116.246 117.559,116.846 117.559,118.758C117.559,120.333 115.872,121.196 113.734,121.196C111.634,121.196 109.384,120.446 109.384,118.833L109.384,117.596L106.197,117.596L106.197,119.621Z" style="fill:white;"/>
                    <path d="M124.009,128.396L124.009,131.208L133.609,131.208L133.609,128.396L130.609,128.396L130.609,122.583C130.609,121.608 130.497,120.933 130.497,120.933L130.572,120.933C130.572,120.933 132.297,124.158 136.459,124.158C141.409,124.158 145.047,120.258 145.047,114.221C145.047,108.333 141.822,104.283 136.722,104.283C131.922,104.283 130.347,107.846 130.347,107.846L130.272,107.846C130.272,107.846 130.347,107.358 130.347,106.758L130.347,106.608C130.347,105.483 129.709,104.733 128.022,104.733L123.822,104.733L123.822,107.546L126.147,107.546C126.672,107.546 126.972,107.808 126.972,108.371L126.972,128.396L124.009,128.396ZM130.534,114.296C130.534,109.458 133.159,107.471 135.972,107.471C139.159,107.471 141.372,110.133 141.372,114.258C141.372,118.571 138.897,121.008 135.897,121.008C132.372,121.008 130.534,117.671 130.534,114.296Z" style="fill:white;"/>
                    <path d="M148.122,114.183C148.122,119.958 152.697,124.158 158.359,124.158C164.022,124.158 168.597,119.958 168.597,114.183C168.597,108.446 164.022,104.283 158.359,104.283C152.697,104.283 148.122,108.446 148.122,114.183ZM151.834,114.183C151.834,110.246 154.759,107.433 158.359,107.433C161.922,107.433 164.884,110.246 164.884,114.183C164.884,118.158 161.922,121.008 158.359,121.008C154.759,121.008 151.834,118.158 151.834,114.183Z" style="fill:white;"/>
                    <path d="M173.284,118.308C173.284,122.733 175.609,123.821 178.309,123.821C179.172,123.821 179.922,123.746 179.922,123.746L179.959,120.746C179.959,120.746 179.547,120.783 178.947,120.783C177.297,120.783 176.922,119.696 176.922,118.083L176.922,97.2331L170.134,97.2331L170.134,100.046L173.284,100.046L173.284,118.308Z" style="fill:white;"/>
                    <path d="M182.622,114.221C182.622,119.846 186.709,124.158 192.672,124.158C197.209,124.158 200.059,121.533 200.059,121.533L198.559,118.871C198.559,118.871 196.197,121.008 192.897,121.008C189.522,121.008 186.559,118.758 186.334,114.558L200.209,114.558C200.209,114.558 200.322,113.658 200.322,113.171C200.322,108.258 197.509,104.283 192.109,104.283C186.709,104.283 182.622,108.183 182.622,114.221ZM186.484,112.233C187.009,109.046 189.259,107.171 192.034,107.171C194.434,107.171 196.459,108.896 196.572,112.233L186.484,112.233Z" style="fill:white;"/>
                    <path d="M203.097,123.708L212.247,123.708L212.247,120.896L209.697,120.896L209.697,114.783L211.197,114.783C212.022,114.783 212.547,114.858 212.959,115.533L216.709,121.946C217.534,123.408 218.097,123.708 219.822,123.708L222.672,123.708L222.672,120.896L221.472,120.896C220.497,120.896 220.197,120.746 219.822,120.146L216.597,114.633C215.847,113.358 215.247,113.096 215.209,113.096L215.209,113.021L219.897,107.546L222.409,107.546L222.409,104.733L213.784,104.733L213.784,107.546L216.259,107.546L212.472,112.008L209.697,112.008L209.697,97.2331L202.909,97.2331L202.909,100.046L206.097,100.046L206.097,120.896L203.097,120.896L203.097,123.708Z" style="fill:white;"/>
                </g>
            </g>
        </g>
    </g>
</svg>
