<?xml version="1.0" standalone="no"?>
<!DOCTYPE svg PUBLIC "-//W3C//DTD SVG 1.1//EN" "http://www.w3.org/Graphics/SVG/1.1/DTD/svg11.dtd">
<svg width="499px" height="20px" version="1.1" xmlns="http://www.w3.org/2000/svg" xmlns:xlink="http://www.w3.org/1999/xlink" xml:space="preserve" style="fill-rule:evenodd;clip-rule:evenodd;stroke-linejoin:round;stroke-miterlimit:1.41421;">
    <g>
        <g>
            <path d="M356.798,14.6271L355.744,14.5544L354.69,14.3644L353.636,14.0872L352.563,13.7386L350.443,12.92L348.3,12.0047L346.22,11.1167L344.266,10.3623L343.405,10.0827L342.618,9.87543L341.943,9.75371L341.397,9.71606L340.852,9.75371L340.177,9.87544L339.388,10.0827L338.527,10.3623L336.574,11.1167L334.495,12.0047L332.352,12.92L330.232,13.7386L329.158,14.0873L328.105,14.3644L327.05,14.5544L325.997,14.6271L324.944,14.5544L323.889,14.3644L322.837,14.0873L321.763,13.7386L319.642,12.92L317.5,12.0047L315.42,11.1167L313.467,10.3623L312.606,10.0827L311.819,9.87545L311.143,9.75372L310.597,9.71605L310.051,9.75371L309.376,9.87544L308.588,10.0827L307.727,10.3623L305.773,11.1167L303.693,12.0047L301.551,12.92L299.431,13.7386L298.358,14.0872L297.304,14.3644L296.25,14.5544L295.197,14.6271L294.145,14.5544L293.091,14.3644L292.037,14.0873L290.963,13.7386L288.844,12.92L284.621,11.1167L282.667,10.3623L281.806,10.0827L281.018,9.87544L280.342,9.75371L279.797,9.71606L279.252,9.75371L278.576,9.87544L277.788,10.0827L276.927,10.3623L274.973,11.1167L270.75,12.92L268.631,13.7386L267.557,14.0873L266.503,14.3644L265.449,14.5544L264.397,14.6271L263.345,14.5541L262.301,14.3625L261.264,14.0833L260.214,13.7325L258.153,12.9126L256.067,11.9989L254.014,11.1092L253.037,10.7158L252.093,10.3702L251.202,10.0877L250.378,9.88009L249.64,9.75556L248.992,9.71485L248.249,9.75717L247.442,9.8845L246.576,10.0928L245.664,10.3739L244.717,10.7169L243.751,11.1067L241.742,11.9922L239.721,12.9039L237.725,13.7251L236.7,14.0785L235.681,14.3604L234.647,14.5538L233.598,14.6271L232.544,14.5544L231.49,14.3644L230.436,14.0873L229.363,13.7386L227.243,12.92L223.02,11.1167L221.067,10.3623L220.206,10.0827L219.417,9.87544L218.742,9.75371L218.197,9.71606L217.651,9.75371L216.976,9.87544L216.188,10.0827L215.327,10.3623L213.373,11.1167L211.294,12.0047L209.151,12.92L207.031,13.7386L205.957,14.0873L204.904,14.3644L203.849,14.5544L202.796,14.6271L201.743,14.5544L200.69,14.3644L199.636,14.0872L198.562,13.7386L196.443,12.92L192.22,11.1167L190.267,10.3623L189.406,10.0827L188.618,9.87544L187.942,9.75371L187.397,9.71606L186.852,9.75371L186.176,9.87544L185.388,10.0827L184.527,10.3623L182.573,11.1167L180.494,12.0047L178.351,12.92L176.232,13.7386L175.158,14.0872L174.104,14.3644L173.05,14.5544L171.998,14.6271L170.944,14.5544L169.89,14.3644L168.836,14.0873L167.763,13.7387L165.642,12.92L163.498,12.0047L161.42,11.1167L159.466,10.3623L158.605,10.0827L157.817,9.87544L157.142,9.75371L156.596,9.71606L156.051,9.75371L155.375,9.87543L154.588,10.0827L153.727,10.3623L151.774,11.1167L149.694,12.0047L147.551,12.92L145.431,13.7386L144.357,14.0872L143.304,14.3644L142.25,14.5544L141.197,14.6271L140.145,14.5541L139.101,14.3626L138.064,14.0833L137.013,13.7325L134.952,12.9127L132.867,11.9989L130.813,11.1092L129.836,10.7158L128.893,10.3702L128.001,10.0877L127.178,9.8801L126.44,9.75556L125.791,9.71484L125.048,9.75717L124.241,9.8845L123.375,10.0928L122.464,10.3739L121.517,10.7169L120.55,11.1067L118.541,11.9922L116.521,12.9039L114.525,13.7251L113.499,14.0785L112.481,14.3604L111.446,14.5538L110.397,14.6271L109.343,14.5544L108.29,14.3644L107.236,14.0873L106.162,13.7386L104.043,12.92L101.899,12.0047L99.8195,11.1167L97.8658,10.3623L97.0049,10.0827L96.2177,9.87543L95.5423,9.75371L94.9969,9.71606L94.4504,9.75372L93.775,9.87545L92.9878,10.0827L92.1269,10.3623L90.1728,11.1167L88.0935,12.0047L85.9503,12.92L83.8304,13.7386L82.7572,14.0872L81.7037,14.3644L80.6496,14.5544L79.5965,14.6271L78.5434,14.5544L77.4893,14.3644L76.4359,14.0873L75.3625,13.7386L73.2425,12.92L71.0991,12.0047L69.0198,11.1167L67.066,10.3623L66.205,10.0827L65.4173,9.87544L64.7421,9.75371L64.1962,9.71606L63.6506,9.75371L62.9754,9.87543L62.1878,10.0827L61.327,10.3623L59.3735,11.1167L57.2942,12.0047L55.1509,12.92L53.0309,13.7386L51.9575,14.0873L50.9041,14.3644L49.85,14.5544L48.7969,14.6271L47.7438,14.5544L46.6897,14.3644L45.6362,14.0873L44.5628,13.7386L42.4429,12.92L38.22,11.1167L36.2664,10.3623L35.4054,10.0827L34.6177,9.87544L33.9424,9.75371L33.3965,9.71606L32.8506,9.75371L32.1753,9.87544L31.3876,10.0827L30.5267,10.3623L28.573,11.1167L26.4936,12.0047L24.3505,12.92L22.2307,13.7386L21.1574,14.0872L20.1041,14.3644L19.0502,14.5544L17.9968,14.6271L16.9457,14.5541L15.9007,14.3626L14.8638,14.0833L13.8132,13.7325L11.7515,12.9127L9.66611,11.999L7.61312,11.1092L6.63569,10.7158L5.69209,10.3702L4.80052,10.0877L3.97662,9.8801L3.23869,9.75556L2.46694,9.70713L2.72455,6.2152L3.71044,6.27708L4.81972,6.46427L5.91815,6.74105L7.00953,7.08685L8.09538,7.48457L9.17929,7.92084L11.2871,8.83437L13.3175,9.72392L15.2115,10.4771L16.0426,10.7546L16.8041,10.9597L17.4599,11.0799L17.9976,11.1172L18.5428,11.0796L19.2179,10.9579L20.0055,10.7507L20.8664,10.471L22.8198,9.71663L24.8992,8.82864L27.0425,7.91336L29.1625,7.09471L30.2359,6.74608L31.2893,6.46893L32.3434,6.27893L33.3965,6.20628L34.4496,6.27893L35.5037,6.46893L36.5571,6.74608L37.6305,7.0947L39.7505,7.91335L43.9734,9.71661L45.9269,10.471L46.788,10.7507L47.5757,10.9579L48.251,11.0796L48.7969,11.1173L49.3428,11.0796L50.018,10.9579L50.8057,10.7507L51.6667,10.471L53.6204,9.71661L55.6997,8.82864L57.8429,7.91337L59.9627,7.09473L61.036,6.7461L62.0893,6.46895L63.1432,6.27893L64.1962,6.20628L65.2493,6.27893L66.3034,6.46893L67.3568,6.74608L68.4302,7.0947L70.5502,7.91335L72.6936,8.82862L74.7729,9.71661L76.7266,10.471L77.5876,10.7507L78.3754,10.9579L79.0506,11.0796L79.5965,11.1173L80.1423,11.0796L80.8177,10.9579L81.6053,10.7507L82.4663,10.471L84.4197,9.71662L86.499,8.82864L88.6423,7.91335L90.7624,7.0947L91.8358,6.74607L92.8892,6.46892L93.9441,6.27892L94.9969,6.20628L96.0497,6.27893L97.1036,6.46895L98.1574,6.7461L99.2308,7.09473L101.35,7.91337L103.493,8.82864L105.572,9.71661L107.526,10.471L108.387,10.7507L109.175,10.9579L109.851,11.0796L110.395,11.1172L110.923,11.0803L111.556,10.9619L112.288,10.7594L113.086,10.4845L114.913,9.73272L116.889,8.84116L118.971,7.92338L120.062,7.48346L121.167,7.08315L122.293,6.73599L123.441,6.45987L124.61,6.27546L125.802,6.20749L126.911,6.27708L128.02,6.46427L129.119,6.74105L130.21,7.08685L131.296,7.48457L132.38,7.92085L134.488,8.83439L136.518,9.72394L138.412,10.4771L139.243,10.7546L140.004,10.9597L140.66,11.0799L141.197,11.1172L141.742,11.0796L142.418,10.9579L143.205,10.7507L144.066,10.471L146.02,9.71661L148.099,8.82862L150.243,7.91335L152.362,7.09471L153.436,6.74609L154.49,6.46894L155.543,6.27893L156.596,6.20628L157.649,6.27893L158.703,6.46893L159.757,6.74609L160.83,7.09471L162.95,7.91336L165.093,8.82862L167.173,9.71659L169.127,10.471L169.988,10.7506L170.776,10.9579L171.451,11.0796L171.998,11.1173L172.543,11.0796L173.219,10.9579L174.006,10.7507L174.867,10.471L176.82,9.71663L178.9,8.82864L181.043,7.91336L183.163,7.09471L184.236,6.74608L185.29,6.46893L186.344,6.27893L187.397,6.20628L188.45,6.27893L189.504,6.46893L190.557,6.74609L191.631,7.09472L193.751,7.91337L197.974,9.71663L199.926,10.471L200.787,10.7507L201.575,10.9579L202.251,11.0796L202.796,11.1173L203.343,11.0796L204.018,10.9579L204.805,10.7506L205.666,10.471L207.62,9.71661L209.7,8.82864L211.843,7.91336L213.963,7.09472L215.036,6.74609L216.09,6.46893L217.144,6.27893L218.197,6.20628L219.249,6.27893L220.303,6.46893L221.357,6.74608L222.431,7.0947L224.55,7.91335L228.773,9.71661L230.727,10.471L231.588,10.7507L232.376,10.9579L233.052,11.0796L233.596,11.1172L234.124,11.0803L234.757,10.9619L235.489,10.7594L236.286,10.4846L238.114,9.73272L240.089,8.84114L242.172,7.92336L243.263,7.48345L244.368,7.08313L245.494,6.73598L246.641,6.45987L247.811,6.27546L249.003,6.20749L250.112,6.27708L251.221,6.46428L252.319,6.74107L253.411,7.08686L254.497,7.48458L255.581,7.92085L257.689,8.83439L259.718,9.72394L261.612,10.4772L262.443,10.7547L263.204,10.9597L263.86,11.0799L264.397,11.1172L264.942,11.0796L265.618,10.9579L266.406,10.7507L267.267,10.471L269.22,9.71661L273.443,7.91335L275.563,7.0947L276.637,6.74608L277.69,6.46893L278.744,6.27893L279.797,6.20628L280.85,6.27893L281.904,6.46893L282.958,6.74608L284.031,7.0947L286.151,7.91335L290.374,9.71661L292.327,10.471L293.188,10.7507L293.977,10.9579L294.652,11.0796L295.197,11.1173L295.743,11.0796L296.418,10.9579L297.205,10.7507L298.066,10.471L300.02,9.71663L302.1,8.82864L304.243,7.91336L306.363,7.09471L307.436,6.74608L308.49,6.46893L309.544,6.27893L310.597,6.20628L311.649,6.27892L312.704,6.46892L313.757,6.74608L314.831,7.09471L316.951,7.91337L319.094,8.82865L321.173,9.71663L323.127,10.471L323.988,10.7507L324.775,10.9579L325.451,11.0796L325.997,11.1173L326.544,11.0796L327.219,10.9579L328.006,10.7506L328.867,10.471L330.821,9.71661L332.9,8.82864L335.044,7.91337L337.164,7.09472L338.237,6.74609L339.291,6.46893L340.345,6.27893L341.397,6.20628L342.45,6.27893L343.504,6.46894L344.558,6.7461L345.631,7.09472L347.751,7.91335L349.895,8.82863L351.974,9.71661L353.928,10.471L354.789,10.7507L355.576,10.9579L356.251,11.0796L356.796,11.1172L357.324,11.0803L357.957,10.9619L358.689,10.7594L359.487,10.4845L361.314,9.73272L363.289,8.84116L365.372,7.92338L366.463,7.48347L367.567,7.08315L368.694,6.73599L369.841,6.45987L371.011,6.27546L372.203,6.20749L373.312,6.27708L374.421,6.46428L375.519,6.74107L376.611,7.08686L377.696,7.48457L378.781,7.92084L380.888,8.83437L382.918,9.72392L384.812,10.4771L385.644,10.7546L386.405,10.9597L387.061,11.0799L387.597,11.1172L388.143,11.0796L388.818,10.9579L389.607,10.7507L390.467,10.471L392.421,9.71661L394.501,8.82864L396.643,7.91337L398.763,7.09473L399.836,6.7461L400.89,6.46895L401.944,6.27893L402.997,6.20628L404.05,6.27892L405.105,6.46892L406.157,6.74607L407.232,7.09469L409.351,7.91335L413.573,9.71662L415.527,10.471L416.388,10.7507L417.176,10.9579L417.852,11.0796L418.397,11.1173L418.943,11.0796L419.618,10.9579L420.406,10.7507L421.267,10.471L423.221,9.7166L425.3,8.82861L427.444,7.91333L429.564,7.09468L430.637,6.74606L431.691,6.46891L432.746,6.27892L433.799,6.20628L434.851,6.27894L435.905,6.46896L436.958,6.74612L438.031,7.09475L440.151,7.91339L442.295,8.82865L444.373,9.71662L446.327,10.471L447.188,10.7507L447.976,10.9579L448.651,11.0796L449.197,11.1173L449.743,11.0796L450.419,10.9579L451.206,10.7506L452.067,10.471L454.021,9.7166L458.244,7.91334L460.363,7.09469L461.438,6.74607L462.491,6.46892L463.545,6.27892L464.598,6.20628L465.651,6.27893L466.705,6.46894L467.759,6.7461L468.832,7.09473L470.952,7.91337L473.094,8.82864L475.174,9.71661L477.128,10.471L477.988,10.7507L478.777,10.9579L479.452,11.0796L479.996,11.1172L480.524,11.0803L481.158,10.9619L481.89,10.7594L482.688,10.4845L484.514,9.73272L486.49,8.84116L488.573,7.92338L489.663,7.48346L490.768,7.08314L491.895,6.73599L493.042,6.45987L494.212,6.27546L495.281,6.2145L495.515,9.70783L494.65,9.75717L493.842,9.8845L492.977,10.0928L492.065,10.3739L491.118,10.7169L490.151,11.1067L488.142,11.9922L486.122,12.9039L484.126,13.7251L483.101,14.0785L482.083,14.3604L481.047,14.5538L479.999,14.6271L478.945,14.5544L477.891,14.3644L476.837,14.0873L475.764,13.7386L473.644,12.92L471.5,12.0047L469.421,11.1167L467.467,10.3623L466.606,10.0827L465.819,9.87543L465.144,9.75371L464.598,9.71606L464.052,9.75372L463.376,9.87545L462.589,10.0827L461.728,10.3623L459.775,11.1167L455.551,12.92L453.432,13.7386L452.357,14.0873L451.305,14.3644L450.25,14.5544L449.197,14.6271L448.144,14.5544L447.09,14.3644L446.036,14.0872L444.963,13.7386L442.843,12.92L440.7,12.0047L438.62,11.1167L436.667,10.3623L435.807,10.0826L435.019,9.87541L434.344,9.7537L433.799,9.71606L433.252,9.75372L432.577,9.87546L431.79,10.0827L430.928,10.3623L428.974,11.1167L426.894,12.0047L424.751,12.92L422.631,13.7386L421.558,14.0873L420.504,14.3644L419.45,14.5544L418.397,14.6271L417.344,14.5544L416.29,14.3644L415.237,14.0872L414.163,13.7386L412.044,12.92L407.82,11.1167L405.867,10.3623L405.006,10.0827L404.219,9.87545L403.543,9.75372L402.997,9.71606L402.451,9.75371L401.776,9.87543L400.989,10.0827L400.128,10.3623L398.174,11.1167L396.095,12.0047L393.951,12.92L391.831,13.7386L390.758,14.0873L389.704,14.3644L388.65,14.5544L387.597,14.6271L386.546,14.5541L385.502,14.3626L384.464,14.0833L383.413,13.7325L381.352,12.9127L379.267,11.999L377.214,11.1092L376.237,10.7158L375.293,10.3702L374.401,10.0877L373.577,9.88009L372.84,9.75556L372.192,9.71485L371.449,9.75717L370.641,9.8845L369.776,10.0928L368.864,10.3739L367.918,10.7169L366.951,11.1067L364.941,11.9922L362.922,12.9039L360.925,13.7251L359.9,14.0785L358.882,14.3604L357.846,14.5538Z" style="fill:rgb(0,156,255);"/>
        </g>
    </g>
</svg>
